<svg class="border shadow-md" viewBox="0 0 759.1466666666668 569.36" xmlns="http://www.w3.org/2000/svg" preserveAspectRatio="none" style="width: 759.147px; height: 569.36px;"><rect class="bg" id="bg" x="0" y="0" width="759.1466666666668" height="569.36" fill="#ffffff"/><path d="M 0 -56.936 L 0 -56.94&#10;                L 97.00 -28.47&#10;                L 151.82933333333335 -56.94 L 151.82933333333335 -56.94&#10;                L 202.44 -8.94&#10;                L 303.6586666666667 -56.94 L 303.6586666666667 -56.94&#10;                L 354.27 -18.94&#10;                L 455.48800000000006 -56.94 L 455.48800000000006 -56.94&#10;                L 560.49 -23.94&#10;                L 607.3173333333334 -56.94 L 607.3173333333334 -56.94&#10;                L 657.93 -28.47&#10;                L 759.1466666666668 -56.94 L 759.1466666666668 -56.94&#10;                L 820.15 -28.47&#10;                L 910.9760000000001 -56.94  V 569.36 H 0 V -56.94 Z" fill="#F95164"/><path d="M 0 0 L 0 0.00&#10;                L 50.61 31.00&#10;                L 151.82933333333335 0.00 L 151.82933333333335 0.00&#10;                L 225.83 29.00&#10;                L 303.6586666666667 0.00 L 303.6586666666667 0.00&#10;                L 380.66 28.47&#10;                L 455.48800000000006 0.00 L 455.48800000000006 0.00&#10;                L 567.49 35.00&#10;                L 607.3173333333334 0.00 L 607.3173333333334 0.00&#10;                L 657.93 28.47&#10;                L 759.1466666666668 0.00 L 759.1466666666668 0.00&#10;                L 809.76 28.47&#10;                L 910.9760000000001 0.00  V 569.36 H 0 V 0.00 Z" fill="#e24c61"/><path d="M 0 56.936 L 0 56.94&#10;                L 50.61 85.40&#10;                L 151.82933333333335 56.94 L 151.82933333333335 56.94&#10;                L 202.44 85.40&#10;                L 303.6586666666667 56.94 L 303.6586666666667 56.94&#10;                L 397.66 85.40&#10;                L 455.48800000000006 56.94 L 455.48800000000006 56.94&#10;                L 551.49 85.40&#10;                L 607.3173333333334 56.94 L 607.3173333333334 56.94&#10;                L 657.93 85.40&#10;                L 759.1466666666668 56.94 L 759.1466666666668 56.94&#10;                L 812.15 97.94&#10;                L 910.9760000000001 56.94  V 569.36 H 0 V 56.94 Z" fill="#cb475e"/><path d="M 0 113.872 L 0 113.87&#10;                L 62.00 152.87&#10;                L 151.82933333333335 113.87 L 151.82933333333335 113.87&#10;                L 243.83 142.34&#10;                L 303.6586666666667 113.87 L 303.6586666666667 113.87&#10;                L 354.27 142.34&#10;                L 455.48800000000006 113.87 L 455.48800000000006 113.87&#10;                L 512.49 162.87&#10;                L 607.3173333333334 113.87 L 607.3173333333334 113.87&#10;                L 702.32 142.34&#10;                L 759.1466666666668 113.87 L 759.1466666666668 113.87&#10;                L 817.15 142.34&#10;                L 910.9760000000001 113.87  V 569.36 H 0 V 113.87 Z" fill="#b4425b"/><path d="M 0 170.808 L 0 170.81&#10;                L 71.00 199.28&#10;                L 151.82933333333335 170.81 L 151.82933333333335 170.81&#10;                L 220.83 199.28&#10;                L 303.6586666666667 170.81 L 303.6586666666667 170.81&#10;                L 354.27 199.28&#10;                L 455.48800000000006 170.81 L 455.48800000000006 170.81&#10;                L 548.49 199.28&#10;                L 607.3173333333334 170.81 L 607.3173333333334 170.81&#10;                L 658.32 199.28&#10;                L 759.1466666666668 170.81 L 759.1466666666668 170.81&#10;                L 831.15 199.28&#10;                L 910.9760000000001 170.81  V 569.36 H 0 V 170.81 Z" fill="#9d3d58"/><path d="M 0 227.744 L 0 227.74&#10;                L 88.00 256.21&#10;                L 151.82933333333335 227.74 L 151.82933333333335 227.74&#10;                L 202.44 278.74&#10;                L 303.6586666666667 227.74 L 303.6586666666667 227.74&#10;                L 354.27 256.21&#10;                L 455.48800000000006 227.74 L 455.48800000000006 227.74&#10;                L 506.10 281.74&#10;                L 607.3173333333334 227.74 L 607.3173333333334 227.74&#10;                L 657.93 256.21&#10;                L 759.1466666666668 227.74 L 759.1466666666668 227.74&#10;                L 868.15 265.74&#10;                L 910.9760000000001 227.74  V 569.36 H 0 V 227.74 Z" fill="#863855"/><path d="M 0 284.68 L 0 284.68&#10;                L 50.61 313.15&#10;                L 151.82933333333335 284.68 L 151.82933333333335 284.68&#10;                L 227.83 313.15&#10;                L 303.6586666666667 284.68 L 303.6586666666667 284.68&#10;                L 354.27 313.15&#10;                L 455.48800000000006 284.68 L 455.48800000000006 284.68&#10;                L 537.49 313.15&#10;                L 607.3173333333334 284.68 L 607.3173333333334 284.68&#10;                L 677.32 322.68&#10;                L 759.1466666666668 284.68 L 759.1466666666668 284.68&#10;                L 809.76 316.68&#10;                L 910.9760000000001 284.68  V 569.36 H 0 V 284.68 Z" fill="#6f3352"/><path d="M 0 341.616 L 0 341.62&#10;                L 88.00 393.62&#10;                L 151.82933333333335 341.62 L 151.82933333333335 341.62&#10;                L 212.83 370.08&#10;                L 303.6586666666667 341.62 L 303.6586666666667 341.62&#10;                L 354.27 370.08&#10;                L 455.48800000000006 341.62 L 455.48800000000006 341.62&#10;                L 566.49 389.62&#10;                L 607.3173333333334 341.62 L 607.3173333333334 341.62&#10;                L 657.93 372.62&#10;                L 759.1466666666668 341.62 L 759.1466666666668 341.62&#10;                L 809.76 377.62&#10;                L 910.9760000000001 341.62  V 569.36 H 0 V 341.62 Z" fill="#582e4f"/><path d="M 0 398.552 L 0 398.55&#10;                L 50.61 454.55&#10;                L 151.82933333333335 398.55 L 151.82933333333335 398.55&#10;                L 235.83 427.02&#10;                L 303.6586666666667 398.55 L 303.6586666666667 398.55&#10;                L 354.27 427.02&#10;                L 455.48800000000006 398.55 L 455.48800000000006 398.55&#10;                L 568.49 427.02&#10;                L 607.3173333333334 398.55 L 607.3173333333334 398.55&#10;                L 694.32 427.02&#10;                L 759.1466666666668 398.55 L 759.1466666666668 398.55&#10;                L 814.15 427.02&#10;                L 910.9760000000001 398.55  V 569.36 H 0 V 398.55 Z" fill="#41294c"/><path d="M 0 455.488 L 0 455.49&#10;                L 50.61 510.49&#10;                L 151.82933333333335 455.49 L 151.82933333333335 455.49&#10;                L 202.44 483.96&#10;                L 303.6586666666667 455.49 L 303.6586666666667 455.49&#10;                L 357.66 491.49&#10;                L 455.48800000000006 455.49 L 455.48800000000006 455.49&#10;                L 506.10 508.49&#10;                L 607.3173333333334 455.49 L 607.3173333333334 455.49&#10;                L 657.93 509.49&#10;                L 759.1466666666668 455.49 L 759.1466666666668 455.49&#10;                L 809.76 489.49&#10;                L 910.9760000000001 455.49  V 569.36 H 0 V 455.49 Z" fill="#2a2449"/><path d="M 0 512.424 L 0 512.42&#10;                L 60.00 542.42&#10;                L 151.82933333333335 512.42 L 151.82933333333335 512.42&#10;                L 240.83 540.89&#10;                L 303.6586666666667 512.42 L 303.6586666666667 512.42&#10;                L 410.66 546.42&#10;                L 455.48800000000006 512.42 L 455.48800000000006 512.42&#10;                L 515.49 561.42&#10;                L 607.3173333333334 512.42 L 607.3173333333334 512.42&#10;                L 699.32 553.42&#10;                L 759.1466666666668 512.42 L 759.1466666666668 512.42&#10;                L 841.15 540.89&#10;                L 910.9760000000001 512.42  V 569.36 H 0 V 512.42 Z" fill="#131f46"/></svg>