<svg class="border shadow-md" viewBox="0 0 1049.7422222222222 590.48" style="width: 1049.74px; height: 590.48px;" xmlns="http://www.w3.org/2000/svg" preserveAspectRatio="none"><rect class="bg" id="bg" x="0" y="0" width="1049.7422222222222" height="590.48" fill="#ffffff"/><path d="M 0 -147.62 L 0 -147.62&#10;                L 77.00 -22.62&#10;                L 174.95703703703703 -147.62 L 174.95703703703703 -147.62&#10;                L 260.96 -64.62&#10;                L 349.91407407407405 -147.62 L 349.91407407407405 -147.62&#10;                L 408.23 -23.62&#10;                L 524.8711111111111 -147.62 L 524.8711111111111 -147.62&#10;                L 583.19 -73.81&#10;                L 699.8281481481481 -147.62 L 699.8281481481481 -147.62&#10;                L 758.15 -21.62&#10;                L 874.7851851851851 -147.62 L 874.7851851851851 -147.62&#10;                L 973.79 -73.81&#10;                L 1049.7422222222222 -147.62 L 1049.7422222222222 -147.62&#10;                L 1108.06 -29.62&#10;                L 1224.6992592592592 -147.62  V 590.48 H 0 V -147.62 Z" fill="#00BFA6"/><path d="M 0 0 L 0 0.00&#10;                L 73.00 76.00&#10;                L 174.95703703703703 0.00 L 174.95703703703703 0.00&#10;                L 233.28 73.81&#10;                L 349.91407407407405 0.00 L 349.91407407407405 0.00&#10;                L 437.91 105.00&#10;                L 524.8711111111111 0.00 L 524.8711111111111 0.00&#10;                L 631.87 73.81&#10;                L 699.8281481481481 0.00 L 699.8281481481481 0.00&#10;                L 774.83 133.00&#10;                L 874.7851851851851 0.00 L 874.7851851851851 0.00&#10;                L 933.10 111.00&#10;                L 1049.7422222222222 0.00 L 1049.7422222222222 0.00&#10;                L 1108.06 138.00&#10;                L 1224.6992592592592 0.00  V 590.48 H 0 V 0.00 Z" fill="#00a28d"/><path d="M 0 147.62 L 0 147.62&#10;                L 108.00 232.62&#10;                L 174.95703703703703 147.62 L 174.95703703703703 147.62&#10;                L 260.96 222.62&#10;                L 349.91407407407405 147.62 L 349.91407407407405 147.62&#10;                L 453.91 221.43&#10;                L 524.8711111111111 147.62 L 524.8711111111111 147.62&#10;                L 583.19 234.62&#10;                L 699.8281481481481 147.62 L 699.8281481481481 147.62&#10;                L 758.15 234.62&#10;                L 874.7851851851851 147.62 L 874.7851851851851 147.62&#10;                L 1002.79 260.62&#10;                L 1049.7422222222222 147.62 L 1049.7422222222222 147.62&#10;                L 1108.06 221.43&#10;                L 1224.6992592592592 147.62  V 590.48 H 0 V 147.62 Z" fill="#008574"/><path d="M 0 295.24 L 0 295.24&#10;                L 58.32 384.24&#10;                L 174.95703703703703 295.24 L 174.95703703703703 295.24&#10;                L 296.96 369.05&#10;                L 349.91407407407405 295.24 L 349.91407407407405 295.24&#10;                L 412.91 411.24&#10;                L 524.8711111111111 295.24 L 524.8711111111111 295.24&#10;                L 583.19 369.05&#10;                L 699.8281481481481 295.24 L 699.8281481481481 295.24&#10;                L 758.15 376.24&#10;                L 874.7851851851851 295.24 L 874.7851851851851 295.24&#10;                L 933.10 373.24&#10;                L 1049.7422222222222 295.24 L 1049.7422222222222 295.24&#10;                L 1108.06 369.05&#10;                L 1224.6992592592592 295.24  V 590.48 H 0 V 295.24 Z" fill="#00685b"/><path d="M 0 442.86 L 0 442.86&#10;                L 79.00 559.86&#10;                L 174.95703703703703 442.86 L 174.95703703703703 442.86&#10;                L 285.96 516.67&#10;                L 349.91407407407405 442.86 L 349.91407407407405 442.86&#10;                L 424.91 541.86&#10;                L 524.8711111111111 442.86 L 524.8711111111111 442.86&#10;                L 583.19 560.86&#10;                L 699.8281481481481 442.86 L 699.8281481481481 442.86&#10;                L 825.83 558.86&#10;                L 874.7851851851851 442.86 L 874.7851851851851 442.86&#10;                L 933.10 553.86&#10;                L 1049.7422222222222 442.86 L 1049.7422222222222 442.86&#10;                L 1108.06 520.86&#10;                L 1224.6992592592592 442.86  V 590.48 H 0 V 442.86 Z" fill="#004b42"/></svg>