<svg class="border shadow-md" viewBox="0 0 1049.7422222222222 590.48" style="width: 1049.74px; height: 590.48px;" xmlns="http://www.w3.org/2000/svg" preserveAspectRatio="none"><rect class="bg" id="bg" x="0" y="0" width="1049.7422222222222" height="590.48" fill="#ffffff"/><g><path d="M 0 -39.36533333333333V -55.111466666666665 H 52.487111111111105 V -39.36533333333333 H 104.97422222222221 V -55.111466666666665 H 157.4613333333333 V -23.6192 H 209.94844444444442 V -31.492266666666666 H 262.43555555555554 V -39.36533333333333 H 314.9226666666666 V -47.2384 H 367.4097777777777 V -39.36533333333333 H 419.89688888888884 V -31.492266666666666 H 472.38399999999996 V -31.492266666666666 H 524.8711111111111 V -55.111466666666665 H 577.3582222222221 V -39.36533333333333 H 629.8453333333332 V -47.2384 H 682.3324444444444 V -31.492266666666666 H 734.8195555555554 V -47.2384 H 787.3066666666666 V -15.746133333333333 H 839.7937777777777 V -15.746133333333333 H 892.2808888888887 V -31.492266666666666 H 944.7679999999999 V -31.492266666666666 H 997.255111111111 V -15.746133333333333 H 1049.7422222222222 V 591.48 H 0 V -39.36533333333333 Z" fill="#00BFA6"/></g><g><path d="M 0 0V 7.873066666666666 H 52.487111111111105 V 0 H 104.97422222222221 V 15.746133333333333 H 157.4613333333333 V 0 H 209.94844444444442 V -7.873066666666666 H 262.43555555555554 V 23.6192 H 314.9226666666666 V 7.873066666666666 H 367.4097777777777 V -15.746133333333333 H 419.89688888888884 V 23.6192 H 472.38399999999996 V 0 H 524.8711111111111 V 15.746133333333333 H 577.3582222222221 V 7.873066666666666 H 629.8453333333332 V 7.873066666666666 H 682.3324444444444 V 7.873066666666666 H 734.8195555555554 V 0 H 787.3066666666666 V 7.873066666666666 H 839.7937777777777 V 23.6192 H 892.2808888888887 V 15.746133333333333 H 944.7679999999999 V 7.873066666666666 H 997.255111111111 V 0 H 1049.7422222222222 V 591.48 H 0 V 0 Z" fill="#00b79f"/></g><g><path d="M 0 39.36533333333333V 47.2384 H 52.487111111111105 V 55.111466666666665 H 104.97422222222221 V 15.746133333333333 H 157.4613333333333 V 47.2384 H 209.94844444444442 V 47.2384 H 262.43555555555554 V 39.36533333333333 H 314.9226666666666 V 23.6192 H 367.4097777777777 V 39.36533333333333 H 419.89688888888884 V 47.2384 H 472.38399999999996 V 47.2384 H 524.8711111111111 V 31.492266666666666 H 577.3582222222221 V 62.98453333333333 H 629.8453333333332 V 39.36533333333333 H 682.3324444444444 V 15.746133333333333 H 734.8195555555554 V 55.111466666666665 H 787.3066666666666 V 39.36533333333333 H 839.7937777777777 V 23.6192 H 892.2808888888887 V 23.6192 H 944.7679999999999 V 62.98453333333333 H 997.255111111111 V 39.36533333333333 H 1049.7422222222222 V 591.48 H 0 V 39.36533333333333 Z" fill="#00af98"/></g><g><path d="M 0 78.73066666666666V 102.34986666666666 H 52.487111111111105 V 94.4768 H 104.97422222222221 V 70.85759999999999 H 157.4613333333333 V 62.98453333333333 H 209.94844444444442 V 55.111466666666665 H 262.43555555555554 V 102.34986666666666 H 314.9226666666666 V 62.98453333333333 H 367.4097777777777 V 102.34986666666666 H 419.89688888888884 V 86.60373333333334 H 472.38399999999996 V 78.73066666666666 H 524.8711111111111 V 102.34986666666666 H 577.3582222222221 V 78.73066666666666 H 629.8453333333332 V 78.73066666666666 H 682.3324444444444 V 94.4768 H 734.8195555555554 V 86.60373333333334 H 787.3066666666666 V 86.60373333333334 H 839.7937777777777 V 102.34986666666666 H 892.2808888888887 V 78.73066666666666 H 944.7679999999999 V 78.73066666666666 H 997.255111111111 V 70.85759999999999 H 1049.7422222222222 V 591.48 H 0 V 78.73066666666666 Z" fill="#00a791"/></g><g><path d="M 0 118.096V 118.096 H 52.487111111111105 V 118.096 H 104.97422222222221 V 102.34986666666667 H 157.4613333333333 V 141.7152 H 209.94844444444442 V 133.84213333333332 H 262.43555555555554 V 141.7152 H 314.9226666666666 V 118.096 H 367.4097777777777 V 118.096 H 419.89688888888884 V 133.84213333333332 H 472.38399999999996 V 110.22293333333334 H 524.8711111111111 V 141.7152 H 577.3582222222221 V 125.96906666666666 H 629.8453333333332 V 102.34986666666667 H 682.3324444444444 V 125.96906666666666 H 734.8195555555554 V 133.84213333333332 H 787.3066666666666 V 133.84213333333332 H 839.7937777777777 V 94.4768 H 892.2808888888887 V 110.22293333333334 H 944.7679999999999 V 102.34986666666667 H 997.255111111111 V 125.96906666666666 H 1049.7422222222222 V 591.48 H 0 V 118.096 Z" fill="#009f8a"/></g><g><path d="M 0 157.46133333333333V 157.46133333333333 H 52.487111111111105 V 165.3344 H 104.97422222222221 V 173.20746666666668 H 157.4613333333333 V 181.08053333333334 H 209.94844444444442 V 149.58826666666667 H 262.43555555555554 V 157.46133333333333 H 314.9226666666666 V 141.71519999999998 H 367.4097777777777 V 157.46133333333333 H 419.89688888888884 V 157.46133333333333 H 472.38399999999996 V 157.46133333333333 H 524.8711111111111 V 165.3344 H 577.3582222222221 V 157.46133333333333 H 629.8453333333332 V 173.20746666666668 H 682.3324444444444 V 181.08053333333334 H 734.8195555555554 V 157.46133333333333 H 787.3066666666666 V 181.08053333333334 H 839.7937777777777 V 181.08053333333334 H 892.2808888888887 V 165.3344 H 944.7679999999999 V 165.3344 H 997.255111111111 V 157.46133333333333 H 1049.7422222222222 V 591.48 H 0 V 157.46133333333333 Z" fill="#009783"/></g><g><path d="M 0 196.82666666666665V 204.6997333333333 H 52.487111111111105 V 220.44586666666666 H 104.97422222222221 V 181.08053333333334 H 157.4613333333333 V 204.6997333333333 H 209.94844444444442 V 204.6997333333333 H 262.43555555555554 V 212.57279999999997 H 314.9226666666666 V 212.57279999999997 H 367.4097777777777 V 220.44586666666666 H 419.89688888888884 V 204.6997333333333 H 472.38399999999996 V 196.82666666666665 H 524.8711111111111 V 212.57279999999997 H 577.3582222222221 V 204.6997333333333 H 629.8453333333332 V 204.6997333333333 H 682.3324444444444 V 188.9536 H 734.8195555555554 V 212.57279999999997 H 787.3066666666666 V 188.9536 H 839.7937777777777 V 204.6997333333333 H 892.2808888888887 V 196.82666666666665 H 944.7679999999999 V 212.57279999999997 H 997.255111111111 V 196.82666666666665 H 1049.7422222222222 V 591.48 H 0 V 196.82666666666665 Z" fill="#008f7c"/></g><g><path d="M 0 236.192V 236.192 H 52.487111111111105 V 236.192 H 104.97422222222221 V 236.192 H 157.4613333333333 V 228.31893333333335 H 209.94844444444442 V 236.192 H 262.43555555555554 V 244.06506666666667 H 314.9226666666666 V 244.06506666666667 H 367.4097777777777 V 228.31893333333335 H 419.89688888888884 V 251.93813333333333 H 472.38399999999996 V 251.93813333333333 H 524.8711111111111 V 259.8112 H 577.3582222222221 V 236.192 H 629.8453333333332 V 236.192 H 682.3324444444444 V 251.93813333333333 H 734.8195555555554 V 236.192 H 787.3066666666666 V 251.93813333333333 H 839.7937777777777 V 244.06506666666667 H 892.2808888888887 V 236.192 H 944.7679999999999 V 251.93813333333333 H 997.255111111111 V 236.192 H 1049.7422222222222 V 591.48 H 0 V 236.192 Z" fill="#008775"/></g><g><path d="M 0 275.5573333333333V 283.43039999999996 H 52.487111111111105 V 251.9381333333333 H 104.97422222222221 V 291.3034666666666 H 157.4613333333333 V 283.43039999999996 H 209.94844444444442 V 283.43039999999996 H 262.43555555555554 V 299.1765333333333 H 314.9226666666666 V 283.43039999999996 H 367.4097777777777 V 275.5573333333333 H 419.89688888888884 V 299.1765333333333 H 472.38399999999996 V 291.3034666666666 H 524.8711111111111 V 259.8112 H 577.3582222222221 V 283.43039999999996 H 629.8453333333332 V 291.3034666666666 H 682.3324444444444 V 283.43039999999996 H 734.8195555555554 V 275.5573333333333 H 787.3066666666666 V 251.9381333333333 H 839.7937777777777 V 283.43039999999996 H 892.2808888888887 V 275.5573333333333 H 944.7679999999999 V 275.5573333333333 H 997.255111111111 V 299.1765333333333 H 1049.7422222222222 V 591.48 H 0 V 275.5573333333333 Z" fill="#007f6e"/></g><g><path d="M 0 314.92266666666666V 330.6688 H 52.487111111111105 V 338.54186666666664 H 104.97422222222221 V 338.54186666666664 H 157.4613333333333 V 338.54186666666664 H 209.94844444444442 V 291.3034666666667 H 262.43555555555554 V 330.6688 H 314.9226666666666 V 314.92266666666666 H 367.4097777777777 V 314.92266666666666 H 419.89688888888884 V 291.3034666666667 H 472.38399999999996 V 291.3034666666667 H 524.8711111111111 V 322.7957333333333 H 577.3582222222221 V 338.54186666666664 H 629.8453333333332 V 330.6688 H 682.3324444444444 V 299.17653333333334 H 734.8195555555554 V 322.7957333333333 H 787.3066666666666 V 330.6688 H 839.7937777777777 V 338.54186666666664 H 892.2808888888887 V 314.92266666666666 H 944.7679999999999 V 314.92266666666666 H 997.255111111111 V 314.92266666666666 H 1049.7422222222222 V 591.48 H 0 V 314.92266666666666 Z" fill="#007767"/></g><g><path d="M 0 354.288V 354.288 H 52.487111111111105 V 346.41493333333335 H 104.97422222222221 V 354.288 H 157.4613333333333 V 370.03413333333333 H 209.94844444444442 V 370.03413333333333 H 262.43555555555554 V 346.41493333333335 H 314.9226666666666 V 362.16106666666667 H 367.4097777777777 V 362.16106666666667 H 419.89688888888884 V 330.66880000000003 H 472.38399999999996 V 377.9072 H 524.8711111111111 V 330.66880000000003 H 577.3582222222221 V 362.16106666666667 H 629.8453333333332 V 370.03413333333333 H 682.3324444444444 V 370.03413333333333 H 734.8195555555554 V 370.03413333333333 H 787.3066666666666 V 362.16106666666667 H 839.7937777777777 V 362.16106666666667 H 892.2808888888887 V 370.03413333333333 H 944.7679999999999 V 338.5418666666667 H 997.255111111111 V 354.288 H 1049.7422222222222 V 591.48 H 0 V 354.288 Z" fill="#006f60"/></g><g><path d="M 0 393.6533333333333V 401.52639999999997 H 52.487111111111105 V 409.3994666666666 H 104.97422222222221 V 393.6533333333333 H 157.4613333333333 V 417.2725333333333 H 209.94844444444442 V 401.52639999999997 H 262.43555555555554 V 393.6533333333333 H 314.9226666666666 V 393.6533333333333 H 367.4097777777777 V 393.6533333333333 H 419.89688888888884 V 393.6533333333333 H 472.38399999999996 V 377.9072 H 524.8711111111111 V 417.2725333333333 H 577.3582222222221 V 370.03413333333333 H 629.8453333333332 V 393.6533333333333 H 682.3324444444444 V 377.9072 H 734.8195555555554 V 417.2725333333333 H 787.3066666666666 V 393.6533333333333 H 839.7937777777777 V 370.03413333333333 H 892.2808888888887 V 377.9072 H 944.7679999999999 V 393.6533333333333 H 997.255111111111 V 393.6533333333333 H 1049.7422222222222 V 591.48 H 0 V 393.6533333333333 Z" fill="#006759"/></g><g><path d="M 0 433.01866666666666V 433.01866666666666 H 52.487111111111105 V 425.1456 H 104.97422222222221 V 440.8917333333333 H 157.4613333333333 V 456.63786666666664 H 209.94844444444442 V 433.01866666666666 H 262.43555555555554 V 425.1456 H 314.9226666666666 V 409.3994666666667 H 367.4097777777777 V 433.01866666666666 H 419.89688888888884 V 417.27253333333334 H 472.38399999999996 V 433.01866666666666 H 524.8711111111111 V 440.8917333333333 H 577.3582222222221 V 456.63786666666664 H 629.8453333333332 V 448.7648 H 682.3324444444444 V 448.7648 H 734.8195555555554 V 456.63786666666664 H 787.3066666666666 V 456.63786666666664 H 839.7937777777777 V 456.63786666666664 H 892.2808888888887 V 440.8917333333333 H 944.7679999999999 V 440.8917333333333 H 997.255111111111 V 448.7648 H 1049.7422222222222 V 591.48 H 0 V 433.01866666666666 Z" fill="#005f52"/></g><g><path d="M 0 472.384V 488.13013333333333 H 52.487111111111105 V 480.2570666666667 H 104.97422222222221 V 472.384 H 157.4613333333333 V 464.51093333333336 H 209.94844444444442 V 472.384 H 262.43555555555554 V 488.13013333333333 H 314.9226666666666 V 480.2570666666667 H 367.4097777777777 V 472.384 H 419.89688888888884 V 472.384 H 472.38399999999996 V 496.0032 H 524.8711111111111 V 472.384 H 577.3582222222221 V 488.13013333333333 H 629.8453333333332 V 464.51093333333336 H 682.3324444444444 V 496.0032 H 734.8195555555554 V 464.51093333333336 H 787.3066666666666 V 472.384 H 839.7937777777777 V 496.0032 H 892.2808888888887 V 472.384 H 944.7679999999999 V 472.384 H 997.255111111111 V 480.2570666666667 H 1049.7422222222222 V 591.48 H 0 V 472.384 Z" fill="#00574b"/></g><g><path d="M 0 511.7493333333333V 503.87626666666665 H 52.487111111111105 V 535.3685333333333 H 104.97422222222221 V 527.4954666666666 H 157.4613333333333 V 535.3685333333333 H 209.94844444444442 V 527.4954666666666 H 262.43555555555554 V 527.4954666666666 H 314.9226666666666 V 511.7493333333333 H 367.4097777777777 V 519.6224 H 419.89688888888884 V 503.87626666666665 H 472.38399999999996 V 488.13013333333333 H 524.8711111111111 V 519.6224 H 577.3582222222221 V 535.3685333333333 H 629.8453333333332 V 511.7493333333333 H 682.3324444444444 V 535.3685333333333 H 734.8195555555554 V 519.6224 H 787.3066666666666 V 488.13013333333333 H 839.7937777777777 V 535.3685333333333 H 892.2808888888887 V 511.7493333333333 H 944.7679999999999 V 511.7493333333333 H 997.255111111111 V 511.7493333333333 H 1049.7422222222222 V 591.48 H 0 V 511.7493333333333 Z" fill="#004f44"/></g><g><path d="M 0 551.1146666666666V 551.1146666666666 H 52.487111111111105 V 566.8607999999999 H 104.97422222222221 V 551.1146666666666 H 157.4613333333333 V 535.3685333333333 H 209.94844444444442 V 551.1146666666666 H 262.43555555555554 V 558.9877333333333 H 314.9226666666666 V 535.3685333333333 H 367.4097777777777 V 558.9877333333333 H 419.89688888888884 V 566.8607999999999 H 472.38399999999996 V 527.4954666666666 H 524.8711111111111 V 535.3685333333333 H 577.3582222222221 V 527.4954666666666 H 629.8453333333332 V 574.7338666666666 H 682.3324444444444 V 558.9877333333333 H 734.8195555555554 V 543.2416 H 787.3066666666666 V 566.8607999999999 H 839.7937777777777 V 558.9877333333333 H 892.2808888888887 V 574.7338666666666 H 944.7679999999999 V 551.1146666666666 H 997.255111111111 V 558.9877333333333 H 1049.7422222222222 V 591.48 H 0 V 551.1146666666666 Z" fill="#00473d"/></g></svg>